<?xml version="1.0" encoding="UTF-8"?>
<svg width="164px" height="42px" viewBox="0 0 164 42" version="1.1" xmlns="http://www.w3.org/2000/svg" xmlns:xlink="http://www.w3.org/1999/xlink">
    <!-- Generator: Sketch 49.3 (51167) - http://www.bohemiancoding.com/sketch -->
    <title>deepin-logo</title>
    <desc>Created with Sketch.</desc>
    <defs></defs>
    <g id="Page-1" stroke="none" stroke-width="1" fill="none" fill-rule="evenodd">
        <g id="搜素-按照主题" transform="translate(-222.000000, -14.000000)" fill="#FFFFFF" fill-rule="nonzero">
            <g id="deepin-logo" transform="translate(221.000000, 14.000000)">
                <path d="M61.984,33 C63.016,33 63.022,32.077 63.021,31.984 C63.02,31.637 63.015,29.365 63.015,29.016 C63.015,28.016 62,28 62,28 C62,28 42.255,27.984 40.984,27.984 C38.969,27.984 39,26.034 39,26.034 C38.974,25.907 39.001,24 39,24 L59.008,24 C64.562,24 64,20 64,20 L64,16.036 C64,16.036 64.542,9 57.016,9 L40.16,9 C32.5,9 33.019,15.943 33.019,15.943 C33.019,19.702 33.021,21.046 33.021,25.992 C33.021,33 40.031,32.968 40.031,32.968 M57.017,19.014 C56.378,19.014 39,19.016 39,19.016 C39,19.016 39.004,16.426 39.004,16.031 C39.004,15.016 39.969,14.019 41.016,14.016 C41.987,14.012 55.041,14.016 56.047,14.016 C56.953,14.016 58.005,15.031 58,16.016 C57.996,16.795 57.984,17.272 57.984,18.016 C57.984,18.016 57.984,19.014 57.017,19.014" id="Fill-1"></path>
                <path d="M29.99,0 C29.561,0.001 26.431,0.001 26.003,0 C26.003,0 25.001,0 25.001,1.031 C25.001,1.113 24.997,9 24.997,9 C20.787,8.999 16.427,9.002 12.045,9 C2.634,8.997 0.977,17.147 0.986,21.014 C0.996,24.881 2.678,32.984 12.194,32.974 C21.711,32.965 21.977,32.986 26.006,32.986 C30.995,32.986 31,28.016 31,28.016 L31,1 C31,0 29.99,0 29.99,0 Z M24.984,27.025 C24.984,27.025 25,28 23.984,28 C22.894,28 17.571,28.012 14.301,28.002 C11.029,27.993 7.018,27.274 7.016,21.078 C7.013,14.881 11.471,14.023 14.254,14.023 C17.035,14.023 24.98,14.034 24.98,14.034 C24.98,14.034 24.984,26.137 24.984,27.025 Z" id="Fill-2"></path>
                <path d="M136,6 L132,6 C131.448,6 131,5.552 131,5 L131,1 C131,0.448 131.448,0 132,0 L136,0 C136.552,0 137,0.448 137,1 L137,5 C137,5.552 136.552,6 136,6" id="Fill-3"></path>
                <path d="M136,33 L132,33 C131.448,33 131,32.552 131,32 L131,10 C131,9.448 131.448,9 132,9 L136,9 C136.552,9 137,9.448 137,10 L137,32 C137,32.552 136.552,33 136,33" id="Fill-4"></path>
                <path d="M155,9.007 C147.654,8.997 139,9.004 139,9.004 L139,31.984 C139,32.438 139.29,33.107 140.197,32.991 C141.175,32.987 142.712,32.982 143.69,32.979 C145.068,33.175 145.028,31.969 145.028,31.969 L144.999,14.016 C144.999,14.016 152.315,14.008 154.992,14.008 C155.159,14.008 159.031,14.083 159.031,19 L159.002,32.001 C159.001,32.555 159.449,33.004 160.003,33.003 L164.001,33.001 C164.553,33 165,32.553 165,32.001 L165,18.545 C165,13.002 162.346,9.017 155,9.007" id="Fill-5"></path>
                <path d="M24.982,27.077 C24.969,27.275 24.861,28 23.984,28 C22.894,28 17.571,28.012 14.301,28.002 C11.029,27.993 7.016,27.274 7.016,21.078 C7.016,14.65 11.471,14.023 14.254,14.023 C14.254,14.023 -1.836,13.667 2.579,27.255 C3.891,30.891 7.467,32.979 12.194,32.974 C17.992,32.969 17.354,32.974 19.227,32.98 C22.465,32.98 24.982,30.302 24.982,27.077" id="Fill-6"></path>
                <path d="M100.003,41.986 C100.432,41.985 103.559,41.985 103.987,41.986 C103.987,41.986 104.986,41.986 104.986,40.955 C104.986,40.873 104.99,32.986 104.99,32.986 C109.2,32.987 113.56,32.985 117.941,32.986 C127.352,32.99 129.009,24.84 129,20.972 C128.99,17.105 127.308,9.002 117.792,9.012 C108.275,9.021 108.016,9 103.988,9 C98.998,9 99,13.971 99,13.971 L99,40.986 C99,41.986 100.003,41.986 100.003,41.986 Z M105.001,14.962 C105.001,14.962 104.986,13.986 106.001,13.986 C107.091,13.986 112.414,13.974 115.685,13.984 C118.957,13.994 122.968,14.712 122.97,20.908 C122.973,27.105 118.515,27.963 115.732,27.963 C112.951,27.963 105.006,27.953 105.006,27.953 C105.006,27.953 105.001,15.849 105.001,14.962 Z" id="Fill-7"></path>
                <path d="M62,28 C62,28 43.513,27.985 41.047,27.985 C38.987,27.985 39,26.034 39,26.034 C39,26.034 38.54,32.999 44.604,32.999 C44.604,32.999 60.905,33 61.984,33 C63.063,33 63,32 63,32 L63,29.016 C63,28.047 62,28 62,28" id="Fill-8"></path>
                <path d="M94.984,33 C96.016,33 96.022,32.077 96.021,31.984 C96.02,31.637 96.015,29.365 96.015,29.016 C96.015,28.016 95,28 95,28 C95,28 75.255,27.984 73.984,27.984 C71.969,27.984 72,26.034 72,26.034 C71.974,25.907 72.001,24 72,24 L92.008,24 C97.562,24 97,20 97,20 L97,16.036 C97,16.036 97.542,9 90.016,9 L73.16,9 C65.5,9 66.019,15.943 66.019,15.943 C66.019,19.702 66.021,21.046 66.021,25.992 C66.021,33 73.031,32.968 73.031,32.968 M90.017,19.014 C89.378,19.014 72,19.016 72,19.016 C72,19.016 72.004,16.426 72.004,16.031 C72.004,15.016 72.969,14.019 74.016,14.016 C74.987,14.012 88.041,14.016 89.047,14.016 C89.953,14.016 91.005,15.031 91,16.016 C90.996,16.795 90.984,17.272 90.984,18.016 C90.984,18.016 90.984,19.014 90.017,19.014" id="Fill-9"></path>
                <path d="M95,28 C95,28 76.513,27.985 74.047,27.985 C71.987,27.985 72,26.034 72,26.034 C72,26.034 71.54,32.999 77.604,32.999 C77.604,32.999 93.905,33 94.984,33 C96.062,33 96,32 96,32 L96,29.016 C96,28.047 95,28 95,28" id="Fill-10"></path>
                <path d="M126.756,23.0730192 C125.734,17.5310057 120.691,15.16 120.691,15.16 L120.615,15.174 C121.993,16.1380024 122.969,17.8570065 122.97,20.9080139 C122.973,27.105029 118.515,27.963031 115.732,27.963031 C112.951,27.963031 105.006,27.953031 105.006,27.953031 C105.006,27.953031 105.004,22.0000166 105.002,18.0000069 L105,18.0000069 L105,32.9860908 C109.207,32.9870432 118.361,32.9720432 118.567,32.9620432 L118.563,32.9700432 C120.61,32.9720432 122.48,32.2010413 122.48,32.2010413 C126.989,29.3200343 127.178,25.3630247 126.756,23.0730192" id="Fill-11"></path>
                <path d="M136,9 L132,9 C132,9 137,13.283 137,22.077 L137,10 C137,9.448 136.552,9 136,9" id="Fill-12"></path>
                <path d="M132,6 L136,6 C136.122,6 136.236,5.97 136.344,5.93 C131.669,5.351 131,1.125 131,1.125 L131,5 C131,5.552 131.448,6 132,6" id="Fill-13"></path>
                <path d="M155.402,14.044 C156.432,14.194 159.031,14.969 159.031,19 L159.002,32.001 C159.001,32.555 159.449,33.004 160.003,33.003 L164.001,33.001 C164.553,33 165,32.553 165,32.001 L165,21.38 C165,14.891 155.402,14.044 155.402,14.044" id="Fill-14"></path>
            </g>
        </g>
    </g>
</svg>